<?xml version="1.0" standalone="no"?>
<!DOCTYPE svg PUBLIC "-//W3C//DTD SVG 20010904//EN"
 "http://www.w3.org/TR/2001/REC-SVG-20010904/DTD/svg10.dtd">
<svg version="1.0" xmlns="http://www.w3.org/2000/svg"
 width="1000.000000pt" height="1000.000000pt" viewBox="0 0 1000.000000 1000.000000"
 preserveAspectRatio="xMidYMid meet">

<g transform="translate(0.000000,1000.000000) scale(0.100000,-0.100000)"
fill="#000000" stroke="none">
<path d="M4522 8728 c-122 -211 -700 -1215 -1286 -2233 l-1065 -1850 1316 -3
c724 -1 1318 -1 1319 1 2 2 64 282 139 623 74 340 143 647 151 682 9 35 14 66
11 69 -3 3 -236 -113 -517 -256 l-511 -262 -104 3 -103 3 489 854 c269 470
489 857 489 859 0 2 -16 26 -35 52 -19 26 -35 50 -35 54 0 3 31 6 68 6 l69 0
506 885 c279 487 507 887 507 890 0 3 -267 5 -594 5 l-594 0 -220 -382z"/>
<path d="M4963 7238 c330 -425 418 -544 413 -563 -3 -11 -192 -875 -421 -1920
-229 -1045 -418 -1907 -421 -1916 -4 -15 50 -17 613 -21 340 -3 621 -2 624 1
4 3 95 409 204 901 108 492 199 905 202 918 l5 22 230 0 229 0 589 433 589
432 -723 5 -722 5 36 170 c21 94 66 302 100 463 l63 292 174 0 c163 0 173 -1
173 -19 0 -10 -18 -102 -40 -205 -22 -102 -40 -188 -40 -191 0 -3 279 -5 619
-5 l619 0 5 23 c4 12 65 292 136 622 72 330 133 608 135 618 4 16 -83 17
-1725 17 l-1730 0 64 -82z"/>
<path d="M3990 2474 c0 -6 -138 -741 -144 -766 -4 -16 6 -18 103 -18 l107 0
72 383 c40 210 72 388 72 395 0 9 -28 12 -105 12 -58 0 -105 -3 -105 -6z"/>
<path d="M5017 2473 c-3 -5 -10 -41 -17 -80 l-13 -73 -52 0 c-46 0 -53 -3 -59
-22 -14 -52 -9 -58 44 -58 28 0 50 -2 50 -4 0 -3 -18 -98 -40 -213 -22 -114
-40 -223 -40 -241 0 -75 35 -92 191 -92 86 0 109 3 109 14 0 7 3 28 6 45 l7
31 -52 0 c-28 0 -51 3 -51 8 0 4 19 107 42 230 l42 222 52 0 c55 0 64 8 64 56
0 22 -4 24 -50 24 -27 0 -50 1 -50 3 0 9 22 124 26 140 5 15 -4 17 -100 17
-58 0 -107 -3 -109 -7z"/>
<path d="M5416 2464 c-3 -9 -6 -27 -6 -40 0 -24 1 -24 104 -24 l104 0 6 31 c3
17 6 35 6 40 0 5 -47 9 -104 9 -85 0 -105 -3 -110 -16z"/>
<path d="M2675 2431 c-82 -20 -99 -45 -130 -195 -30 -140 -31 -157 -6 -187 18
-23 26 -24 188 -29 l169 -5 -24 -117 -25 -118 -80 0 c-77 0 -79 1 -74 23 4 12
9 41 13 65 l7 43 -119 -3 -119 -3 -14 -72 c-13 -65 -13 -73 3 -97 9 -15 28
-31 42 -36 14 -6 124 -10 244 -10 308 0 318 5 359 193 27 127 27 178 0 203
-19 17 -40 19 -185 22 -118 2 -164 7 -164 15 1 7 11 59 24 117 l22 105 79 3
78 3 -6 -43 c-4 -24 -10 -53 -13 -65 -6 -23 -6 -23 114 -23 l120 0 11 50 c23
109 11 145 -54 160 -47 11 -416 11 -460 1z"/>
<path d="M3327 2300 c-33 -26 -37 -42 -87 -307 -59 -314 -66 -305 230 -301
214 3 234 9 265 68 16 32 95 438 95 491 0 67 -9 69 -257 69 -206 0 -222 -1
-246 -20z m293 -67 c0 -5 -18 -108 -42 -230 l-42 -223 -62 0 c-54 0 -62 2 -58
18 2 9 17 89 34 177 17 88 35 184 41 213 l10 52 60 0 c32 0 59 -3 59 -7z"/>
<path d="M4286 2303 c-12 -41 -96 -503 -96 -527 0 -75 34 -86 259 -86 148 0
181 3 210 18 63 32 71 52 126 342 l51 270 -106 0 -106 0 -49 -257 c-26 -142
-50 -264 -53 -270 -4 -13 -122 -19 -122 -7 0 6 84 448 96 507 l6 27 -106 0
c-91 0 -105 -2 -110 -17z"/>
<path d="M5385 2298 c-2 -13 -27 -144 -55 -293 -28 -148 -52 -280 -55 -293 -6
-23 -5 -23 102 -20 l108 3 57 300 c31 165 57 306 57 313 1 9 -26 12 -104 12
-100 0 -105 -1 -110 -22z"/>
<path d="M5752 2304 c-37 -26 -48 -60 -93 -303 -59 -319 -65 -311 213 -311
183 0 216 5 257 43 32 31 35 39 80 280 46 244 48 267 23 290 -27 25 -446 25
-480 1z m282 -101 c-4 -21 -23 -123 -43 -228 l-37 -190 -63 -3 c-62 -3 -63 -2
-58 20 3 13 22 109 42 213 20 105 38 198 41 208 4 14 17 17 65 17 l60 0 -7
-37z"/>
<path d="M6375 2298 c-7 -30 -115 -595 -115 -602 0 -6 210 -9 210 -3 1 1 24
124 53 272 l52 270 63 3 c61 3 62 2 57 -20 -16 -71 -95 -497 -95 -511 0 -15
13 -17 103 -17 l103 0 54 286 c50 264 53 288 39 312 l-15 27 -252 3 -252 2 -5
-22z"/>
<path d="M7046 2288 c-28 -29 -35 -45 -50 -134 -30 -171 -18 -184 166 -184
l128 0 0 -27 c0 -25 -6 -55 -25 -140 -5 -21 -11 -23 -66 -23 l-60 0 7 45 6 45
-105 0 -104 0 -7 -31 c-9 -46 -7 -88 4 -109 17 -32 67 -40 249 -40 250 0 273
15 305 197 18 104 13 144 -19 157 -9 3 -77 6 -151 6 -74 0 -134 3 -134 8 1 4
9 45 18 92 l18 85 63 3 c56 3 62 1 58 -15 -3 -10 -8 -33 -12 -50 l-7 -33 105
0 c118 0 113 -4 123 85 6 45 3 56 -15 74 -20 20 -30 21 -242 21 l-221 0 -32
-32z"/>
</g>
</svg>
