<?xml version="1.0" encoding="UTF-8"?>
<!DOCTYPE svg PUBLIC "-//W3C//DTD SVG 1.1//EN" "http://www.w3.org/Graphics/SVG/1.1/DTD/svg11.dtd">
<svg xmlns="http://www.w3.org/2000/svg" version="1.1" width="5120px" height="1067px" style="shape-rendering:geometricPrecision; text-rendering:geometricPrecision; image-rendering:optimizeQuality; fill-rule:evenodd; clip-rule:evenodd" xmlns:xlink="http://www.w3.org/1999/xlink">
<g><path style="opacity:1" fill="#fefffe" d="M 1225.5,11.5 C 1398.84,9.85551 1540.34,74.5222 1650,205.5C 1725.02,302.603 1762.86,413.269 1763.5,537.5C 1759.14,679.326 1707.81,799.993 1609.5,899.5C 1493.01,1010.28 1353.68,1059.12 1191.5,1046C 1066.33,1031.48 959.828,979.978 872,891.5C 796.199,811.976 749.532,717.31 732,607.5C 712.5,463.39 745.166,333.39 830,217.5C 930.301,90.1789 1062.13,21.5122 1225.5,11.5 Z M 1244.5,66.5 C 1316.27,67.1142 1384.27,82.7809 1448.5,113.5C 1580.3,182 1663.63,288.667 1698.5,433.5C 1725.29,575.117 1695.62,702.784 1609.5,816.5C 1597.94,829.908 1586.1,843.241 1574,856.5C 1523.14,906.608 1463.47,943.942 1395,968.5C 1375.96,974.55 1356.79,979.884 1337.5,984.5C 1329.82,985.505 1322.15,986.505 1314.5,987.5C 1330.76,909.952 1347.76,832.619 1365.5,755.5C 1387.18,755.833 1408.84,755.5 1430.5,754.5C 1483.51,716.129 1536.18,677.463 1588.5,638.5C 1590.5,636.867 1591.84,634.867 1592.5,632.5C 1525.83,632.5 1459.17,632.5 1392.5,632.5C 1401.11,591.003 1409.94,549.67 1419,508.5C 1438.76,507.507 1458.59,507.174 1478.5,507.5C 1478.33,512.196 1477.83,516.863 1477,521.5C 1473.61,536.414 1470.44,551.414 1467.5,566.5C 1520.83,566.5 1574.17,566.5 1627.5,566.5C 1639.77,505.609 1652.77,444.942 1666.5,384.5C 1510.83,384.5 1355.17,384.5 1199.5,384.5C 1199.52,386.06 1199.85,387.56 1200.5,389C 1222.5,417.667 1244.5,446.333 1266.5,475C 1265.11,478.137 1263.94,481.304 1263,484.5C 1251.81,536.537 1240.64,588.87 1229.5,641.5C 1178.83,641.5 1128.17,641.5 1077.5,641.5C 1083.01,618.165 1088.84,594.832 1095,571.5C 1140.55,403.656 1185.55,235.99 1230,68.5C 1234.93,67.8563 1239.77,67.1897 1244.5,66.5 Z M 1050.5,108.5 C 1051.55,108.351 1052.55,108.517 1053.5,109C 1055.4,111.939 1057.73,114.439 1060.5,116.5C 1066.76,125.764 1073.76,134.43 1081.5,142.5C 1081.83,143.667 1082.17,144.833 1082.5,146C 1030.99,338.162 979.154,529.995 927,721.5C 925.927,727.619 924.761,733.619 923.5,739.5C 1018.17,739.333 1112.83,739.5 1207.5,740C 1189.89,821.597 1172.22,903.097 1154.5,984.5C 1080.46,969.228 1014.12,938.395 955.5,892C 876.022,826.556 822.688,743.722 795.5,643.5C 761.785,496.789 789.785,363.789 879.5,244.5C 889.17,232.563 899.336,220.896 910,209.5C 915.5,204 921,198.5 926.5,193C 937.588,184.264 948.255,175.097 958.5,165.5C 987.614,144.065 1018.28,125.065 1050.5,108.5 Z"/></g>
<g><path style="opacity:0.992" fill="#fefffe" d="M 1908.5,287.5 C 1975.5,287.333 2042.5,287.5 2109.5,288C 2130.07,293.575 2142.91,306.741 2148,327.5C 2148.5,372.499 2148.67,417.499 2148.5,462.5C 2117.17,462.5 2085.83,462.5 2054.5,462.5C 2054.5,423.833 2054.5,385.167 2054.5,346.5C 2024.17,346.5 1993.83,346.5 1963.5,346.5C 1963.5,403.833 1963.5,461.167 1963.5,518.5C 2012.17,518.333 2060.83,518.5 2109.5,519C 2130.78,523.951 2143.62,537.118 2148,558.5C 2148.67,618.167 2148.67,677.833 2148,737.5C 2143.16,759.045 2129.99,772.212 2108.5,777C 2041.83,777.667 1975.17,777.667 1908.5,777C 1888.55,772.381 1875.71,760.215 1870,740.5C 1868.54,705.535 1868.04,670.535 1868.5,635.5C 1900.17,635.5 1931.83,635.5 1963.5,635.5C 1963.5,663.5 1963.5,691.5 1963.5,719.5C 1993.83,719.5 2024.17,719.5 2054.5,719.5C 2054.5,672.167 2054.5,624.833 2054.5,577.5C 2006.17,577.667 1957.83,577.5 1909.5,577C 1886.46,571.957 1872.96,557.79 1869,534.5C 1868.33,466.167 1868.33,397.833 1869,329.5C 1873.45,307.216 1886.62,293.216 1908.5,287.5 Z"/></g>
<g><path style="opacity:0.993" fill="#fefffe" d="M 2254.5,287.5 C 2322.17,287.333 2389.83,287.5 2457.5,288C 2479.98,293.481 2493.15,307.647 2497,330.5C 2497.67,465.5 2497.67,600.5 2497,735.5C 2492.73,757.769 2479.57,771.602 2457.5,777C 2389.83,777.667 2322.17,777.667 2254.5,777C 2233.67,772.167 2220.83,759.333 2216,738.5C 2215.33,601.167 2215.33,463.833 2216,326.5C 2221.35,305.985 2234.18,292.985 2254.5,287.5 Z M 2309.5,346.5 C 2340.5,346.5 2371.5,346.5 2402.5,346.5C 2402.5,470.833 2402.5,595.167 2402.5,719.5C 2371.5,719.5 2340.5,719.5 2309.5,719.5C 2309.5,595.167 2309.5,470.833 2309.5,346.5 Z"/></g>
<g><path style="opacity:0.99" fill="#fefffe" d="M 2566.5,287.5 C 2598.17,287.5 2629.83,287.5 2661.5,287.5C 2661.5,431.5 2661.5,575.5 2661.5,719.5C 2713.17,719.5 2764.83,719.5 2816.5,719.5C 2816.5,738.833 2816.5,758.167 2816.5,777.5C 2733.17,777.5 2649.83,777.5 2566.5,777.5C 2566.5,614.167 2566.5,450.833 2566.5,287.5 Z"/></g>
<g><path style="opacity:0.989" fill="#fefffe" d="M 2863.5,287.5 C 2895.17,287.5 2926.83,287.5 2958.5,287.5C 2958.5,431.5 2958.5,575.5 2958.5,719.5C 2988.5,719.5 3018.5,719.5 3048.5,719.5C 3048.5,575.5 3048.5,431.5 3048.5,287.5C 3080.17,287.5 3111.83,287.5 3143.5,287.5C 3143.5,450.833 3143.5,614.167 3143.5,777.5C 3063.17,777.667 2982.83,777.5 2902.5,777C 2881.43,771.397 2868.6,757.897 2864,736.5C 2863.5,586.834 2863.33,437.167 2863.5,287.5 Z"/></g>
<g><path style="opacity:0.99" fill="#fefffe" d="M 3192.5,287.5 C 3288.5,287.5 3384.5,287.5 3480.5,287.5C 3480.5,307.167 3480.5,326.833 3480.5,346.5C 3448.5,346.5 3416.5,346.5 3384.5,346.5C 3384.5,490.167 3384.5,633.833 3384.5,777.5C 3352.83,777.5 3321.17,777.5 3289.5,777.5C 3289.5,633.833 3289.5,490.167 3289.5,346.5C 3257.17,346.5 3224.83,346.5 3192.5,346.5C 3192.5,326.833 3192.5,307.167 3192.5,287.5 Z"/></g>
<g><path style="opacity:0.987" fill="#fefffe" d="M 3529.5,287.5 C 3561.17,287.5 3592.83,287.5 3624.5,287.5C 3624.5,450.833 3624.5,614.167 3624.5,777.5C 3592.83,777.5 3561.17,777.5 3529.5,777.5C 3529.5,614.167 3529.5,450.833 3529.5,287.5 Z"/></g>
<g><path style="opacity:0.989" fill="#fefffe" d="M 3732.5,287.5 C 3800.17,287.333 3867.83,287.5 3935.5,288C 3959.13,294.627 3972.29,310.127 3975,334.5C 3975.67,467.167 3975.67,599.833 3975,732.5C 3972.06,756.44 3958.89,771.273 3935.5,777C 3867.83,777.667 3800.17,777.667 3732.5,777C 3709.1,771.264 3695.93,756.431 3693,732.5C 3692.33,598.5 3692.33,464.5 3693,330.5C 3697.04,307.632 3710.21,293.299 3732.5,287.5 Z M 3787.5,346.5 C 3818.5,346.5 3849.5,346.5 3880.5,346.5C 3880.5,470.833 3880.5,595.167 3880.5,719.5C 3849.5,719.5 3818.5,719.5 3787.5,719.5C 3787.5,595.167 3787.5,470.833 3787.5,346.5 Z"/></g>
<g><path style="opacity:0.996" fill="#fefffe" d="M 4044.5,287.5 C 4075.74,287.171 4106.91,287.504 4138,288.5C 4169.67,386.167 4201.33,483.833 4233,581.5C 4233.5,483.501 4233.67,385.501 4233.5,287.5C 4264.83,287.5 4296.17,287.5 4327.5,287.5C 4327.5,450.833 4327.5,614.167 4327.5,777.5C 4296.49,777.833 4265.49,777.5 4234.5,776.5C 4202.57,679.203 4170.73,581.87 4139,484.5C 4138.5,582.166 4138.33,679.833 4138.5,777.5C 4107.17,777.5 4075.83,777.5 4044.5,777.5C 4044.5,614.167 4044.5,450.833 4044.5,287.5 Z"/></g>
<g><path style="opacity:0.99" fill="#fefffe" d="M 4436.5,287.5 C 4503.17,287.333 4569.83,287.5 4636.5,288C 4658.55,293.385 4671.72,307.219 4676,329.5C 4676.5,373.832 4676.67,418.165 4676.5,462.5C 4644.83,462.5 4613.17,462.5 4581.5,462.5C 4581.5,423.833 4581.5,385.167 4581.5,346.5C 4551.5,346.5 4521.5,346.5 4491.5,346.5C 4491.5,403.833 4491.5,461.167 4491.5,518.5C 4539.83,518.333 4588.17,518.5 4636.5,519C 4658.52,524.359 4671.69,538.192 4676,560.5C 4676.67,618.833 4676.67,677.167 4676,735.5C 4671.7,757.795 4658.54,771.628 4636.5,777C 4569.5,777.667 4502.5,777.667 4435.5,777C 4416.27,772.298 4403.77,760.465 4398,741.5C 4396.53,706.207 4396.03,670.874 4396.5,635.5C 4428.17,635.5 4459.83,635.5 4491.5,635.5C 4491.5,663.5 4491.5,691.5 4491.5,719.5C 4521.5,719.5 4551.5,719.5 4581.5,719.5C 4581.5,672.167 4581.5,624.833 4581.5,577.5C 4533.5,577.667 4485.5,577.5 4437.5,577C 4415.33,572.167 4401.83,558.667 4397,536.5C 4396.33,466.833 4396.33,397.167 4397,327.5C 4402.39,306.28 4415.55,292.947 4436.5,287.5 Z"/></g>
</svg>
