<?xml version="1.0" encoding="UTF-8"?>
<!DOCTYPE svg PUBLIC "-//W3C//DTD SVG 1.1//EN" "http://www.w3.org/Graphics/SVG/1.1/DTD/svg11.dtd">
<svg xmlns="http://www.w3.org/2000/svg" version="1.1" width="5120px" height="1067px" style="shape-rendering:geometricPrecision; text-rendering:geometricPrecision; image-rendering:optimizeQuality; fill-rule:evenodd; clip-rule:evenodd" xmlns:xlink="http://www.w3.org/1999/xlink">
<g><path style="opacity:0.959" fill="#000000" d="M 1225.5,11.5 C 1398.84,9.85551 1540.34,74.5222 1650,205.5C 1725.02,302.603 1762.86,413.269 1763.5,537.5C 1759.14,679.326 1707.81,799.993 1609.5,899.5C 1493.01,1010.28 1353.68,1059.12 1191.5,1046C 1066.33,1031.48 959.828,979.978 872,891.5C 796.199,811.976 749.532,717.31 732,607.5C 712.5,463.39 745.166,333.39 830,217.5C 930.301,90.1789 1062.13,21.5122 1225.5,11.5 Z M 1244.5,66.5 C 1316.27,67.1142 1384.27,82.7809 1448.5,113.5C 1580.3,182 1663.63,288.667 1698.5,433.5C 1725.29,575.117 1695.62,702.784 1609.5,816.5C 1597.94,829.908 1586.1,843.241 1574,856.5C 1523.14,906.608 1463.47,943.942 1395,968.5C 1375.96,974.55 1356.79,979.884 1337.5,984.5C 1329.82,985.505 1322.15,986.505 1314.5,987.5C 1330.76,909.952 1347.76,832.619 1365.5,755.5C 1387.18,755.833 1408.84,755.5 1430.5,754.5C 1483.51,716.129 1536.18,677.463 1588.5,638.5C 1590.5,636.867 1591.84,634.867 1592.5,632.5C 1525.83,632.5 1459.17,632.5 1392.5,632.5C 1401.11,591.003 1409.94,549.67 1419,508.5C 1438.76,507.507 1458.59,507.174 1478.5,507.5C 1478.33,512.196 1477.83,516.863 1477,521.5C 1473.61,536.414 1470.44,551.414 1467.5,566.5C 1520.83,566.5 1574.17,566.5 1627.5,566.5C 1639.77,505.609 1652.77,444.942 1666.5,384.5C 1510.83,384.5 1355.17,384.5 1199.5,384.5C 1199.52,386.06 1199.85,387.56 1200.5,389C 1222.5,417.667 1244.5,446.333 1266.5,475C 1265.11,478.137 1263.94,481.304 1263,484.5C 1251.81,536.537 1240.64,588.87 1229.5,641.5C 1178.83,641.5 1128.17,641.5 1077.5,641.5C 1083.01,618.165 1088.84,594.832 1095,571.5C 1140.55,403.656 1185.55,235.99 1230,68.5C 1234.93,67.8563 1239.77,67.1897 1244.5,66.5 Z M 1050.5,108.5 C 1051.55,108.351 1052.55,108.517 1053.5,109C 1055.4,111.939 1057.73,114.439 1060.5,116.5C 1066.76,125.764 1073.76,134.43 1081.5,142.5C 1081.83,143.667 1082.17,144.833 1082.5,146C 1030.99,338.162 979.154,529.995 927,721.5C 925.927,727.619 924.761,733.619 923.5,739.5C 1018.17,739.333 1112.83,739.5 1207.5,740C 1189.89,821.597 1172.22,903.097 1154.5,984.5C 1080.46,969.228 1014.12,938.395 955.5,892C 876.022,826.556 822.688,743.722 795.5,643.5C 761.785,496.789 789.785,363.789 879.5,244.5C 889.17,232.563 899.336,220.896 910,209.5C 915.5,204 921,198.5 926.5,193C 937.588,184.264 948.255,175.097 958.5,165.5C 987.614,144.065 1018.28,125.065 1050.5,108.5 Z"/></g>
<g><path style="opacity:0.992" fill="#000000" d="M 1896.5,287.5 C 1963.5,287.333 2030.5,287.5 2097.5,288C 2118.08,293.583 2130.92,306.75 2136,327.5C 2136.5,372.499 2136.67,417.499 2136.5,462.5C 2105.17,462.5 2073.83,462.5 2042.5,462.5C 2042.5,423.833 2042.5,385.167 2042.5,346.5C 2012.17,346.5 1981.83,346.5 1951.5,346.5C 1951.5,403.833 1951.5,461.167 1951.5,518.5C 2000.17,518.333 2048.83,518.5 2097.5,519C 2118.78,523.951 2131.62,537.118 2136,558.5C 2136.67,618.167 2136.67,677.833 2136,737.5C 2131.16,759.045 2117.99,772.212 2096.5,777C 2029.83,777.667 1963.17,777.667 1896.5,777C 1876.55,772.381 1863.71,760.215 1858,740.5C 1856.54,705.535 1856.04,670.535 1856.5,635.5C 1888.17,635.5 1919.83,635.5 1951.5,635.5C 1951.5,663.5 1951.5,691.5 1951.5,719.5C 1981.83,719.5 2012.17,719.5 2042.5,719.5C 2042.5,672.167 2042.5,624.833 2042.5,577.5C 1994.17,577.667 1945.83,577.5 1897.5,577C 1874.46,571.957 1860.96,557.79 1857,534.5C 1856.33,466.167 1856.33,397.833 1857,329.5C 1861.45,307.216 1874.62,293.216 1896.5,287.5 Z"/></g>
<g><path style="opacity:0.993" fill="#000000" d="M 2242.5,287.5 C 2310.17,287.333 2377.83,287.5 2445.5,288C 2467.98,293.481 2481.15,307.647 2485,330.5C 2485.67,465.5 2485.67,600.5 2485,735.5C 2480.73,757.769 2467.57,771.602 2445.5,777C 2377.83,777.667 2310.17,777.667 2242.5,777C 2221.67,772.167 2208.83,759.333 2204,738.5C 2203.33,601.167 2203.33,463.833 2204,326.5C 2209.28,305.873 2222.11,292.873 2242.5,287.5 Z M 2297.5,346.5 C 2328.5,346.5 2359.5,346.5 2390.5,346.5C 2390.5,470.833 2390.5,595.167 2390.5,719.5C 2359.5,719.5 2328.5,719.5 2297.5,719.5C 2297.5,595.167 2297.5,470.833 2297.5,346.5 Z"/></g>
<g><path style="opacity:0.99" fill="#000000" d="M 2554.5,287.5 C 2586.17,287.5 2617.83,287.5 2649.5,287.5C 2649.5,431.5 2649.5,575.5 2649.5,719.5C 2701.17,719.5 2752.83,719.5 2804.5,719.5C 2804.5,738.833 2804.5,758.167 2804.5,777.5C 2721.17,777.5 2637.83,777.5 2554.5,777.5C 2554.5,614.167 2554.5,450.833 2554.5,287.5 Z"/></g>
<g><path style="opacity:0.989" fill="#000000" d="M 2851.5,287.5 C 2883.17,287.5 2914.83,287.5 2946.5,287.5C 2946.5,431.5 2946.5,575.5 2946.5,719.5C 2976.5,719.5 3006.5,719.5 3036.5,719.5C 3036.5,575.5 3036.5,431.5 3036.5,287.5C 3068.17,287.5 3099.83,287.5 3131.5,287.5C 3131.5,450.833 3131.5,614.167 3131.5,777.5C 3051.17,777.667 2970.83,777.5 2890.5,777C 2874.91,773.401 2863.41,764.568 2856,750.5C 2854.05,746.019 2852.71,741.352 2852,736.5C 2851.5,586.834 2851.33,437.167 2851.5,287.5 Z"/></g>
<g><path style="opacity:0.99" fill="#000000" d="M 3180.5,287.5 C 3276.5,287.5 3372.5,287.5 3468.5,287.5C 3468.5,307.167 3468.5,326.833 3468.5,346.5C 3436.5,346.5 3404.5,346.5 3372.5,346.5C 3372.5,490.167 3372.5,633.833 3372.5,777.5C 3340.83,777.5 3309.17,777.5 3277.5,777.5C 3277.5,633.833 3277.5,490.167 3277.5,346.5C 3245.17,346.5 3212.83,346.5 3180.5,346.5C 3180.5,326.833 3180.5,307.167 3180.5,287.5 Z"/></g>
<g><path style="opacity:0.987" fill="#000000" d="M 3517.5,287.5 C 3549.17,287.5 3580.83,287.5 3612.5,287.5C 3612.5,450.833 3612.5,614.167 3612.5,777.5C 3580.83,777.5 3549.17,777.5 3517.5,777.5C 3517.5,614.167 3517.5,450.833 3517.5,287.5 Z"/></g>
<g><path style="opacity:0.989" fill="#000000" d="M 3720.5,287.5 C 3788.17,287.333 3855.83,287.5 3923.5,288C 3946.66,294.496 3959.83,309.663 3963,333.5C 3963.67,466.5 3963.67,599.5 3963,732.5C 3960.07,756.431 3946.9,771.264 3923.5,777C 3855.83,777.667 3788.17,777.667 3720.5,777C 3697.07,771.238 3683.9,756.405 3681,732.5C 3680.33,598.5 3680.33,464.5 3681,330.5C 3685.04,307.632 3698.21,293.299 3720.5,287.5 Z M 3775.5,346.5 C 3806.5,346.5 3837.5,346.5 3868.5,346.5C 3868.5,470.833 3868.5,595.167 3868.5,719.5C 3837.5,719.5 3806.5,719.5 3775.5,719.5C 3775.5,595.167 3775.5,470.833 3775.5,346.5 Z"/></g>
<g><path style="opacity:0.995" fill="#000000" d="M 4032.5,287.5 C 4063.74,287.171 4094.91,287.504 4126,288.5C 4157.67,386.167 4189.33,483.833 4221,581.5C 4221.5,483.501 4221.67,385.501 4221.5,287.5C 4252.83,287.5 4284.17,287.5 4315.5,287.5C 4315.5,450.833 4315.5,614.167 4315.5,777.5C 4284.49,777.833 4253.49,777.5 4222.5,776.5C 4190.57,679.203 4158.73,581.87 4127,484.5C 4126.5,582.166 4126.33,679.833 4126.5,777.5C 4095.17,777.5 4063.83,777.5 4032.5,777.5C 4032.5,614.167 4032.5,450.833 4032.5,287.5 Z"/></g>
<g><path style="opacity:0.99" fill="#000000" d="M 4424.5,287.5 C 4491.17,287.333 4557.83,287.5 4624.5,288C 4646.55,293.385 4659.72,307.219 4664,329.5C 4664.5,373.832 4664.67,418.165 4664.5,462.5C 4632.83,462.5 4601.17,462.5 4569.5,462.5C 4569.5,423.833 4569.5,385.167 4569.5,346.5C 4539.5,346.5 4509.5,346.5 4479.5,346.5C 4479.5,403.833 4479.5,461.167 4479.5,518.5C 4527.83,518.333 4576.17,518.5 4624.5,519C 4646.52,524.359 4659.69,538.192 4664,560.5C 4664.67,618.833 4664.67,677.167 4664,735.5C 4659.71,757.789 4646.54,771.623 4624.5,777C 4557.5,777.667 4490.5,777.667 4423.5,777C 4403.84,772.677 4391.34,760.843 4386,741.5C 4384.53,706.207 4384.03,670.874 4384.5,635.5C 4416.17,635.5 4447.83,635.5 4479.5,635.5C 4479.5,663.5 4479.5,691.5 4479.5,719.5C 4509.5,719.5 4539.5,719.5 4569.5,719.5C 4569.5,672.167 4569.5,624.833 4569.5,577.5C 4521.5,577.667 4473.5,577.5 4425.5,577C 4403.33,572.167 4389.83,558.667 4385,536.5C 4384.33,466.833 4384.33,397.167 4385,327.5C 4390.38,306.289 4403.55,292.955 4424.5,287.5 Z"/></g>
</svg>
